{
	"asset":{
		"generator":"Khronos glTF Blender I/O v4.0.44",
		"version":"2.0"
	},
	"scene":0,
	"scenes":[
		{
			"name":"Scene",
			"nodes":[
				0
			]
		}
	],
	"nodes":[
		{
			"mesh":0,
			"name":"Cylinder.001",
			"rotation":[
				0.7071068286895752,
				0,
				0,
				0.7071068286895752
			]
		}
	],
	"materials":[
		{
			"doubleSided":true,
			"name":"Material.001",
			"pbrMetallicRoughness":{
				"baseColorTexture":{
					"index":0
				},
				"metallicFactor":0
			}
		}
	],
	"meshes":[
		{
			"name":"Cylinder.002",
			"primitives":[
				{
					"attributes":{
						"POSITION":0,
						"NORMAL":1,
						"TEXCOORD_0":2
					},
					"indices":3,
					"material":0
				}
			]
		}
	],
	"textures":[
		{
			"sampler":0,
			"source":0
		}
	],
	"images":[
		{
			"mimeType":"image/png",
			"name":"Instagram Post design",
			"uri":"Instagram%20Post%20design.png"
		}
	],
	"accessors":[
		{
			"bufferView":0,
			"componentType":5126,
			"count":88200,
			"max":[
				2.217588186264038,
				0.6232036352157593,
				2.217588186264038
			],
			"min":[
				-2.217588186264038,
				-0.6232036352157593,
				-2.217588186264038
			],
			"type":"VEC3"
		},
		{
			"bufferView":1,
			"componentType":5126,
			"count":88200,
			"type":"VEC3"
		},
		{
			"bufferView":2,
			"componentType":5126,
			"count":88200,
			"type":"VEC2"
		},
		{
			"bufferView":3,
			"componentType":5125,
			"count":133188,
			"type":"SCALAR"
		}
	],
	"bufferViews":[
		{
			"buffer":0,
			"byteLength":1058400,
			"byteOffset":0,
			"target":34962
		},
		{
			"buffer":0,
			"byteLength":1058400,
			"byteOffset":1058400,
			"target":34962
		},
		{
			"buffer":0,
			"byteLength":705600,
			"byteOffset":2116800,
			"target":34962
		},
		{
			"buffer":0,
			"byteLength":532752,
			"byteOffset":2822400,
			"target":34963
		}
	],
	"samplers":[
		{
			"magFilter":9729,
			"minFilter":9987,
			"wrapS":33071,
			"wrapT":33071
		}
	],
	"buffers":[
		{
			"byteLength":3355152,
			"uri":"pellet.bin"
		}
	]
}
